# xmcd CD database file
#
# Track frame offsets:
#	150
#	18630
#	39737
#	59106
#	76413
#	96692
#	113874
#	133392
#
# Disc length: 2006 seconds
#
# Revision: 0
# Processed by: cddbd v1.5.1PL0 Copyright (c) Steve Scherf et al.
# Submitted via: CDex 1.51
#
DISCID=7b07d408
DTITLE=Chad LaMarsh - It's About TIme
DYEAR=2001
DGENRE=Country
TTITLE0=Say Goodbye
TTITLE1=Reason to Breathe
TTITLE2=Whisper
TTITLE3=Dancing Through My Door
TTITLE4=Yes I Am (live)
TTITLE5=Say Goodbye (acoustic)
TTITLE6=Whisper (sci-fi mambo lab mix)
TTITLE7=Dancing Through My Door (acoustic)
EXTD=YEAR: 2001
EXTT0=
EXTT1=
EXTT2=
EXTT3=
EXTT4=
EXTT5=
EXTT6=
EXTT7=
PLAYORDER=
